<svg width="57" height="80" viewBox="0 0 57 80" fill="none" xmlns="http://www.w3.org/2000/svg">
<path d="M28.0869 59.8697C23.0386 59.8697 17.9505 59.4926 12.9419 59.9502C3.9345 60.7799 -3.02872 51.1001 1.33821 41.6817C5.09835 33.5859 9.21163 25.656 13.1508 17.6406C14.7325 14.4224 16.1898 11.1338 17.8609 7.96584C19.9201 4.08386 22.1582 0.347703 27.2513 0.0258812C31.8769 -0.26577 35.1198 1.92162 37.1093 5.874C42.9584 17.4998 48.7627 29.1558 54.3582 40.9074C57.3225 47.1276 56.1636 53.2875 51.7619 57.2197C49.9216 58.864 47.758 59.8496 45.2214 59.8446C39.5066 59.8295 33.7968 59.8396 28.082 59.8396C28.082 59.8496 28.082 59.8647 28.082 59.8748L28.0869 59.8697Z" fill="white"/>
<path d="M35.6036 31.4892C35.2803 32.7061 35.7975 33.5962 36.2402 34.4862C38.4933 39.0521 40.7315 43.623 43.0492 48.1586C43.6361 49.3102 44.3225 50.8187 46.0086 50.0946C47.6549 49.3856 47.9981 47.9173 47.2321 46.3132C44.0688 39.6857 40.8608 33.0732 37.6875 26.4507C37.2747 25.5858 36.469 25.4199 35.7329 25.0528C33.7931 24.0773 32.7586 21.5329 33.5245 19.5064C34.1413 17.8721 35.335 16.957 37.1603 17.0676C38.9061 17.1732 40.2341 18.2845 40.244 19.8031C40.2739 25.6009 44.0539 29.8349 46.0484 34.793C47.6002 38.6498 50.092 42.1094 50.9923 46.2528C51.5692 48.9079 51.0072 51.2461 48.8138 52.996C45.8097 55.3946 42.8304 54.937 40.5226 51.6132C38.0854 48.1033 36.5237 44.1057 34.579 40.3192C33.3654 37.9559 32.4651 35.4265 30.5652 33.4403C29.3267 32.148 29.466 30.5137 30.3115 29.0253C30.9631 27.8838 32.1269 27.4061 33.3107 27.8838C34.8923 28.5174 35.8025 29.7695 35.6036 31.4892Z" fill="black"/>
<path d="M12.9692 28.7452C15.7147 23.229 18.4453 17.7077 21.2057 12.1965C21.8374 10.9293 22.5337 9.69232 23.24 8.46537C24.5481 6.17742 26.5276 5.25721 29.0891 5.6444C31.2875 5.97628 33.3068 8.07818 33.8191 10.5723C34.3314 13.0513 33.7694 15.3644 32.6602 17.5971C30.3624 22.2233 28.1142 26.8796 25.8213 31.5109C25.4085 32.3456 25.0703 33.1853 25.0554 34.1257C25.0305 35.7549 24.2397 36.8511 22.6978 37.2433C21.3251 37.5903 20.2607 36.9567 19.5843 35.7448C18.7935 34.3268 19.0372 32.8585 20.1214 31.8226C25.2344 26.9551 26.642 20.0057 29.9645 14.1375C30.4718 13.2424 30.5165 12.2066 30.1236 11.221C29.4671 9.56158 28.0545 9.2297 26.826 10.5069C26.264 11.0953 25.8263 11.8344 25.4533 12.5736C22.4889 18.4569 19.5495 24.3553 16.605 30.2487C16.1922 31.0734 15.849 31.8779 16.1474 32.8736C16.7045 34.7391 16.2966 36.3985 14.6603 37.5249C13.3621 38.415 11.9397 38.239 10.7012 37.364C8.99024 36.1521 9.1494 34.3721 9.5274 32.592C9.59704 32.2752 9.77609 31.9785 9.91038 31.6768C10.6664 30.4247 12.2281 30.0275 12.9493 28.7452H12.9692Z" fill="black"/>
<path d="M20.5361 50.1537C23.1026 50.1537 25.669 50.1789 28.2355 50.1437C29.6331 50.1236 30.9113 49.9727 32.1498 48.972C33.7563 47.6797 35.4523 48.2278 36.7455 49.7615C38.173 51.4561 38.158 54.0659 36.6958 55.499C35.2633 56.9019 33.5076 57.2791 32.0453 55.8108C30.7522 54.5084 29.3595 54.443 27.7679 54.448C22.3068 54.4682 16.8406 54.4883 11.3795 54.3877C7.46516 54.3173 4.81416 51.5114 4.844 47.7099C4.87882 43.2899 7.29107 40.6751 11.479 40.6348C15.9503 40.5896 20.4217 40.6298 24.8881 40.6197C26.2758 40.6197 27.6137 40.6751 28.9566 39.9107C30.3294 39.1263 31.538 39.8655 32.2542 41.2031C33.0898 42.7569 33.0102 44.2754 31.727 45.5778C30.6378 46.6841 29.3943 46.8299 28.1857 45.8192C27.5292 45.2711 26.9274 44.8185 26.0072 44.8236C21.123 44.8588 16.2388 44.8135 11.3546 44.8738C9.96694 44.8889 8.67875 45.3314 8.50467 47.0562C8.29577 49.1531 9.54417 49.9476 11.3496 49.9878C14.4085 50.0582 17.4723 50.0079 20.5361 50.0079V50.1588V50.1537Z" fill="black"/>
<ellipse cx="12.6417" cy="33.9422" rx="4.22767" ry="4.2742" fill="black"/>
<ellipse cx="37.0089" cy="20.868" rx="4.22767" ry="4.2742" fill="black"/>
<ellipse cx="34.0245" cy="52.5476" rx="4.22767" ry="4.2742" fill="black"/>
<ellipse cx="22.0884" cy="33.9443" rx="3.23292" ry="3.26851" fill="black"/>
<ellipse cx="32.0376" cy="30.9248" rx="3.23292" ry="3.26851" fill="black"/>
<ellipse cx="30.0454" cy="42.9951" rx="3.23292" ry="3.26851" fill="black"/>
<path d="M6.46 74.112C5.82533 74.112 5.27 73.972 4.794 73.692C4.318 73.412 3.94467 72.9873 3.674 72.418C3.41267 71.8393 3.282 71.1113 3.282 70.234C3.282 69.3473 3.408 68.6193 3.66 68.05C3.912 67.4807 4.276 67.056 4.752 66.776C5.228 66.496 5.79733 66.356 6.46 66.356C7.16933 66.356 7.804 66.5193 8.364 66.846C8.93333 67.1633 9.38133 67.6113 9.708 68.19C10.044 68.7687 10.212 69.45 10.212 70.234C10.212 71.0273 10.044 71.7133 9.708 72.292C9.38133 72.8707 8.93333 73.3187 8.364 73.636C7.804 73.9533 7.16933 74.112 6.46 74.112ZM2.008 76.716V66.468H4.094V68.008L4.052 70.248L4.192 72.474V76.716H2.008ZM6.082 72.32C6.446 72.32 6.768 72.236 7.048 72.068C7.33733 71.9 7.566 71.662 7.734 71.354C7.91133 71.0367 8 70.6633 8 70.234C8 69.7953 7.91133 69.422 7.734 69.114C7.566 68.806 7.33733 68.568 7.048 68.4C6.768 68.232 6.446 68.148 6.082 68.148C5.718 68.148 5.39133 68.232 5.102 68.4C4.81267 68.568 4.584 68.806 4.416 69.114C4.248 69.422 4.164 69.7953 4.164 70.234C4.164 70.6633 4.248 71.0367 4.416 71.354C4.584 71.662 4.81267 71.9 5.102 72.068C5.39133 72.236 5.718 72.32 6.082 72.32ZM11.814 74V66.468H13.9V68.596L13.606 67.98C13.83 67.448 14.1893 67.0467 14.684 66.776C15.1787 66.496 15.7807 66.356 16.49 66.356V68.372C16.3967 68.3627 16.3127 68.358 16.238 68.358C16.1633 68.3487 16.084 68.344 16 68.344C15.4027 68.344 14.9173 68.5167 14.544 68.862C14.18 69.198 13.998 69.7253 13.998 70.444V74H11.814ZM21.4579 74.112C20.6553 74.112 19.9413 73.944 19.3159 73.608C18.6999 73.272 18.2099 72.8147 17.8459 72.236C17.4913 71.648 17.3139 70.9807 17.3139 70.234C17.3139 69.478 17.4913 68.8107 17.8459 68.232C18.2099 67.644 18.6999 67.1867 19.3159 66.86C19.9413 66.524 20.6553 66.356 21.4579 66.356C22.2513 66.356 22.9606 66.524 23.5859 66.86C24.2113 67.1867 24.7013 67.6393 25.0559 68.218C25.4106 68.7967 25.5879 69.4687 25.5879 70.234C25.5879 70.9807 25.4106 71.648 25.0559 72.236C24.7013 72.8147 24.2113 73.272 23.5859 73.608C22.9606 73.944 22.2513 74.112 21.4579 74.112ZM21.4579 72.32C21.8219 72.32 22.1486 72.236 22.4379 72.068C22.7273 71.9 22.9559 71.662 23.1239 71.354C23.2919 71.0367 23.3759 70.6633 23.3759 70.234C23.3759 69.7953 23.2919 69.422 23.1239 69.114C22.9559 68.806 22.7273 68.568 22.4379 68.4C22.1486 68.232 21.8219 68.148 21.4579 68.148C21.0939 68.148 20.7673 68.232 20.4779 68.4C20.1886 68.568 19.9553 68.806 19.7779 69.114C19.6099 69.422 19.5259 69.7953 19.5259 70.234C19.5259 70.6633 19.6099 71.0367 19.7779 71.354C19.9553 71.662 20.1886 71.9 20.4779 72.068C20.7673 72.236 21.0939 72.32 21.4579 72.32ZM29.1478 74.168C28.4851 74.168 27.8738 74.0467 27.3138 73.804C26.7631 73.552 26.3104 73.1973 25.9558 72.74L27.2158 71.228C27.4864 71.5827 27.7711 71.8533 28.0698 72.04C28.3684 72.2173 28.6904 72.306 29.0358 72.306C29.9598 72.306 30.4218 71.7647 30.4218 70.682V66.02H26.9778V64.2H32.6758V70.556C32.6758 71.7693 32.3771 72.6747 31.7798 73.272C31.1824 73.8693 30.3051 74.168 29.1478 74.168ZM33.5629 74L37.9309 64.2H40.1709L44.5529 74H42.1729L38.5889 65.348H39.4849L35.8869 74H33.5629ZM35.7469 71.9L36.3489 70.178H41.3889L42.0049 71.9H35.7469ZM47.7397 71.76L47.6137 69.142L52.3037 64.2H54.8237L50.5957 68.75L49.3357 70.094L47.7397 71.76ZM45.7097 74V64.2H47.9637V74H45.7097ZM52.4157 74L48.9297 69.73L50.4137 68.12L55.0617 74H52.4157Z" fill="white"/>
</svg>
